# xmcd
#
# Track frame offsets:
#	150
#	25620
#	43401
#	64456
#	82094
#	101808
#	120947
#	135359
#	166941
#	181865
#	197234
#	220420
#	244495
#	270130
#	285157
#
# Disc length: 4143 seconds
#
# Revision: 1
# Processed by: cddbd v1.5.2PL0 Copyright (c) Steve Scherf et al.
# Submitted via: audiograbber 1.83.01
#
DISCID=d3102d0f
DTITLE=Ian Moss - Let's All Get Together
DYEAR=2007
DGENRE=Blues
TTITLE0=Let's All Get Together
TTITLE1=Choir Girl
TTITLE2=Happy Day
TTITLE3=Such A Beautiful Thing
TTITLE4=Girl I Once Knew
TTITLE5=Red Sand
TTITLE6=Blame It On The Sun
TTITLE7=Flame Trees
TTITLE8=Janelle
TTITLE9=That's The Way It Is
TTITLE10=Out Of The Fire
TTITLE11=Mr Rain
TTITLE12=When The War Is Over
TTITLE13=Thunderball
TTITLE14=Georgia On My Mind
EXTD=YEAR: 2007
EXTT0=
EXTT1=
EXTT2=
EXTT3=
EXTT4=
EXTT5=
EXTT6=
EXTT7=
EXTT8=
EXTT9=
EXTT10=
EXTT11=
EXTT12=
EXTT13=
EXTT14=
PLAYORDER=
